<?xml version="1.0" encoding="utf-8"?>
<!-- Generator: Adobe Illustrator 16.0.0, SVG Export Plug-In . SVG Version: 6.00 Build 0)  -->
<!DOCTYPE svg PUBLIC "-//W3C//DTD SVG 1.1//EN" "http://www.w3.org/Graphics/SVG/1.1/DTD/svg11.dtd">
<svg version="1.1" id="Layer_1" xmlns="http://www.w3.org/2000/svg" xmlns:xlink="http://www.w3.org/1999/xlink" x="0px" y="0px"
	 width="450.394px" height="48.032px" viewBox="0 0 450.394 48.032" enable-background="new 0 0 450.394 48.032"
	 xml:space="preserve">
<g>
	<g>
		<path fill="#0066A4" d="M14.317,34.444c-3.417-2.939-4.251-6.797-4.251-10.015c0-2.266,0.834-6.199,3.933-9.218
			c2.106-2.027,5.286-3.617,10.651-3.617c1.391,0,3.377,0.119,5.086,0.397c1.312,0.238,2.423,0.478,3.575,0.517
			c0.358,0,0.438,0.158,0.438,0.358c0,0.277-0.08,0.675-0.158,1.906c-0.04,1.112-0.04,2.98-0.08,3.457
			c-0.039,0.518-0.199,0.716-0.396,0.716c-0.238,0-0.279-0.238-0.279-0.716c0-1.311-0.556-2.662-1.47-3.377
			c-1.232-1.032-3.775-1.868-6.874-1.868c-4.491,0-6.637,1.191-7.868,2.345c-2.583,2.384-3.14,5.404-3.14,8.822
			c0,6.476,5.125,12.239,12.597,12.239c2.623,0,4.37-0.199,5.762-1.59c0.755-0.756,1.231-2.186,1.352-2.822
			c0.079-0.357,0.118-0.475,0.357-0.475c0.159,0,0.318,0.236,0.318,0.475s-0.478,3.18-0.834,4.332
			c-0.2,0.635-0.278,0.756-0.875,0.994c-1.43,0.555-4.052,0.754-6.317,0.754C20.595,38.059,17.059,36.829,14.317,34.444z"/>
		<path fill="#0066A4" d="M60.021,12.747c0.437-1.112,0.595-1.312,0.834-1.312c0.357,0,0.478,0.478,0.835,1.231
			c0.636,1.432,6.238,15.379,8.384,20.504c1.271,3.021,2.227,3.457,2.981,3.697c0.516,0.158,1.032,0.199,1.391,0.199
			c0.199,0,0.437,0.078,0.437,0.277c0,0.197-0.397,0.277-0.796,0.277c-0.516,0-3.1,0-5.523-0.08
			c-0.675-0.039-1.231-0.039-1.231-0.236c0-0.16,0.079-0.16,0.239-0.238c0.199-0.08,0.556-0.357,0.317-0.916l-3.139-7.748
			c-0.079-0.158-0.119-0.199-0.317-0.199h-8.068c-0.158,0-0.277,0.082-0.356,0.279l-1.987,5.404
			c-0.317,0.834-0.517,1.668-0.517,2.264c0,0.678,0.597,0.916,1.192,0.916h0.318c0.277,0,0.356,0.119,0.356,0.277
			c0,0.197-0.198,0.277-0.517,0.277c-0.833,0-2.741-0.119-3.138-0.119c-0.357,0-2.106,0.119-3.537,0.119
			c-0.437,0-0.676-0.08-0.676-0.277c0-0.158,0.159-0.277,0.318-0.277c0.238,0,0.756-0.041,1.032-0.08
			c1.59-0.199,2.266-1.393,2.94-3.1L60.021,12.747z M63.915,26.813c0.16,0,0.16-0.08,0.119-0.238l-3.456-9.258
			c-0.199-0.518-0.398-0.518-0.597,0l-3.258,9.258c-0.041,0.158,0,0.238,0.119,0.238H63.915z"/>
		<path fill="#0066A4" d="M92.016,21.848c0-5.246,0-6.2-0.08-7.273c-0.08-1.151-0.279-1.708-1.431-1.867
			c-0.277-0.041-0.875-0.08-1.191-0.08c-0.12,0-0.278-0.158-0.278-0.278c0-0.198,0.159-0.277,0.556-0.277
			c1.59,0,3.776,0.079,4.054,0.079c0.755,0,3.377-0.079,4.967-0.079c4.491,0,6.081,1.391,6.676,1.907
			c0.795,0.716,1.748,2.225,1.748,4.053c0,4.849-3.656,8.066-9.019,8.066c-0.2,0-0.796,0-0.995-0.041
			c-0.158,0-0.357-0.158-0.357-0.316c0-0.279,0.199-0.357,0.914-0.357c3.775,0,6.478-2.384,6.478-5.443
			c0-1.114-0.12-3.3-1.988-5.127c-1.828-1.828-3.933-1.629-4.728-1.629c-0.597,0-1.591,0.159-1.948,0.239
			c-0.197,0.039-0.277,0.277-0.277,0.635v13.749c0,3.258,0,5.922,0.158,7.311c0.119,0.996,0.318,1.631,1.392,1.791
			c0.477,0.078,1.231,0.158,1.55,0.158c0.199,0,0.278,0.158,0.278,0.277c0,0.158-0.16,0.277-0.557,0.277
			c-1.907,0-4.212-0.119-4.371-0.119c-0.12,0-2.385,0.119-3.458,0.119c-0.358,0-0.556-0.08-0.556-0.277
			c0-0.119,0.079-0.277,0.278-0.277c0.319,0,0.756-0.08,1.074-0.158c0.675-0.16,0.754-0.795,0.914-1.791
			c0.199-1.389,0.199-4.053,0.199-7.311V21.848z"/>
		<path fill="#0066A4" d="M130.448,27.807c0,3.258,0,5.922,0.159,7.311c0.119,0.996,0.239,1.631,1.271,1.791
			c0.518,0.078,1.273,0.158,1.591,0.158c0.198,0,0.277,0.158,0.277,0.277c0,0.158-0.159,0.277-0.557,0.277
			c-1.947,0-4.212-0.119-4.37-0.119c-0.2,0-2.385,0.119-3.458,0.119c-0.357,0-0.556-0.08-0.556-0.277
			c0-0.119,0.08-0.277,0.277-0.277c0.318,0,0.756-0.08,1.073-0.158c0.676-0.16,0.795-0.795,0.914-1.791
			c0.159-1.389,0.198-4.053,0.198-7.311v-5.959c0-5.246,0-6.2-0.08-7.273c-0.078-1.151-0.356-1.669-1.112-1.828
			c-0.397-0.08-0.834-0.119-1.072-0.119c-0.16,0-0.278-0.158-0.278-0.278c0-0.198,0.159-0.277,0.556-0.277
			c1.153,0,3.338,0.079,3.538,0.079c0.158,0,2.423-0.079,3.496-0.079c0.397,0,0.556,0.079,0.556,0.277
			c0,0.12-0.158,0.278-0.277,0.278c-0.239,0-0.478,0-0.875,0.08c-0.954,0.198-1.152,0.676-1.231,1.867
			c-0.04,1.073-0.04,2.027-0.04,7.273V27.807z"/>
		<path fill="#0066A4" d="M162.877,27.807c0,3.258,0,5.922,0.159,7.311c0.12,0.996,0.279,1.631,1.352,1.791
			c0.476,0.078,1.272,0.158,1.589,0.158c0.238,0,0.277,0.158,0.277,0.277c0,0.158-0.158,0.277-0.557,0.277
			c-1.906,0-4.133-0.119-4.331-0.119c-0.158,0-2.583,0.119-3.616,0.119c-0.398,0-0.557-0.08-0.557-0.277
			c0-0.119,0.08-0.238,0.278-0.238c0.318,0,0.715-0.08,1.034-0.16c0.715-0.158,0.913-0.832,1.033-1.828
			c0.158-1.389,0.158-4.053,0.158-7.311V13.622l-5.047,0.079c-2.185,0.039-3.02,0.278-3.537,1.072
			c-0.396,0.596-0.436,0.835-0.555,1.073c-0.08,0.279-0.2,0.318-0.358,0.318c-0.08,0-0.238-0.08-0.238-0.279
			c0-0.356,0.715-3.377,0.755-3.655c0.079-0.198,0.238-0.636,0.358-0.636c0.237,0,0.595,0.277,1.549,0.397
			c0.994,0.119,2.345,0.159,2.742,0.159h13.193c1.152,0,1.947-0.079,2.503-0.159c0.517-0.079,0.834-0.158,0.994-0.158
			c0.159,0,0.159,0.198,0.159,0.396c0,1.032-0.12,3.457-0.12,3.854c0,0.279-0.158,0.437-0.317,0.437
			c-0.159,0-0.239-0.118-0.279-0.596l-0.04-0.357c-0.119-1.032-0.874-1.788-4.212-1.867l-4.371-0.079V27.807z"/>
		<path fill="#0066A4" d="M195.707,12.747c0.438-1.112,0.596-1.312,0.834-1.312c0.358,0,0.477,0.478,0.834,1.231
			c0.636,1.432,6.239,15.379,8.384,20.504c1.272,3.021,2.226,3.457,2.981,3.697c0.515,0.158,1.033,0.199,1.391,0.199
			c0.198,0,0.437,0.078,0.437,0.277c0,0.197-0.397,0.277-0.795,0.277c-0.518,0-3.1,0-5.523-0.08
			c-0.675-0.039-1.231-0.039-1.231-0.236c0-0.16,0.079-0.16,0.238-0.238c0.198-0.08,0.556-0.357,0.318-0.916l-3.14-7.748
			c-0.08-0.158-0.119-0.199-0.317-0.199h-8.067c-0.159,0-0.278,0.082-0.358,0.279l-1.986,5.404
			c-0.318,0.834-0.517,1.668-0.517,2.264c0,0.678,0.595,0.916,1.191,0.916h0.319c0.277,0,0.357,0.119,0.357,0.277
			c0,0.197-0.199,0.277-0.518,0.277c-0.833,0-2.741-0.119-3.139-0.119c-0.357,0-2.106,0.119-3.537,0.119
			c-0.437,0-0.675-0.08-0.675-0.277c0-0.158,0.159-0.277,0.318-0.277c0.238,0,0.755-0.041,1.033-0.08
			c1.589-0.199,2.265-1.393,2.94-3.1L195.707,12.747z M199.602,26.813c0.158,0,0.158-0.08,0.118-0.238l-3.457-9.258
			c-0.198-0.518-0.397-0.518-0.596,0l-3.258,9.258c-0.04,0.158,0,0.238,0.119,0.238H199.602z"/>
		<path fill="#0066A4" d="M230.88,27.887c0,4.967,0.079,6.992,0.714,7.59c0.555,0.555,1.908,0.795,4.648,0.795
			c1.828,0,3.379-0.039,4.213-1.035c0.438-0.516,0.715-1.23,0.834-1.906c0.041-0.238,0.16-0.438,0.357-0.438
			c0.16,0,0.238,0.16,0.238,0.516c0,0.359-0.238,2.385-0.516,3.379c-0.238,0.795-0.357,0.914-2.225,0.914
			c-2.504,0-4.451-0.039-6.082-0.119c-1.588-0.041-2.781-0.08-3.812-0.08c-0.159,0-0.756,0-1.432,0.039
			c-0.715,0.041-1.471,0.08-2.026,0.08c-0.357,0-0.557-0.08-0.557-0.277c0-0.119,0.079-0.277,0.277-0.277
			c0.319,0,0.756-0.08,1.073-0.158c0.676-0.16,0.756-0.795,0.914-1.791c0.199-1.389,0.199-4.053,0.199-7.311v-5.959
			c0-5.246,0-6.2-0.08-7.273c-0.078-1.151-0.277-1.708-1.43-1.867c-0.279-0.041-0.875-0.08-1.192-0.08
			c-0.119,0-0.279-0.158-0.279-0.278c0-0.198,0.16-0.277,0.557-0.277c1.59,0,3.775,0.079,3.975,0.079
			c0.158,0,2.781-0.079,3.853-0.079c0.357,0,0.557,0.079,0.557,0.277c0,0.12-0.158,0.239-0.279,0.239
			c-0.238,0-0.754,0.039-1.15,0.078c-1.035,0.2-1.232,0.717-1.312,1.908c-0.039,1.073-0.039,2.027-0.039,7.273V27.887z"/>
		<path fill="#0066A4" d="M290.099,27.807c0,3.258,0,5.922,0.158,7.311c0.119,0.996,0.238,1.631,1.271,1.791
			c0.516,0.078,1.271,0.158,1.59,0.158c0.199,0,0.277,0.158,0.277,0.277c0,0.158-0.158,0.277-0.555,0.277
			c-1.949,0-4.213-0.119-4.373-0.119c-0.197,0-2.383,0.119-3.457,0.119c-0.357,0-0.557-0.08-0.557-0.277
			c0-0.119,0.08-0.277,0.279-0.277c0.318,0,0.756-0.08,1.072-0.158c0.676-0.16,0.795-0.795,0.914-1.791
			c0.16-1.389,0.199-4.053,0.199-7.311v-5.959c0-5.246,0-6.2-0.08-7.273c-0.078-1.151-0.357-1.669-1.111-1.828
			c-0.398-0.08-0.836-0.119-1.074-0.119c-0.158,0-0.277-0.158-0.277-0.278c0-0.198,0.158-0.277,0.557-0.277
			c1.152,0,3.338,0.079,3.535,0.079c0.16,0,2.424-0.079,3.498-0.079c0.396,0,0.557,0.079,0.557,0.277c0,0.12-0.16,0.278-0.279,0.278
			c-0.238,0-0.477,0-0.873,0.08c-0.955,0.198-1.154,0.676-1.232,1.867c-0.039,1.073-0.039,2.027-0.039,7.273V27.807z"/>
		<path fill="#0066A4" d="M314.104,21.848c0-5.246,0-6.2-0.08-7.273c-0.08-1.151-0.277-1.708-1.43-1.867
			c-0.279-0.041-0.875-0.08-1.193-0.08c-0.119,0-0.277-0.158-0.277-0.278c0-0.198,0.158-0.277,0.555-0.277
			c1.592,0,3.855,0.079,4.055,0.079c0.396,0,2.623-0.079,4.688-0.079c3.498,0,9.895-0.318,14.029,3.854
			c1.748,1.75,3.416,4.571,3.416,8.584c0,4.251-1.828,7.511-3.773,9.497c-1.51,1.549-4.65,3.895-10.609,3.895
			c-1.512,0-3.379-0.119-4.889-0.199c-1.512-0.119-2.703-0.199-2.861-0.199c-0.08,0-0.715,0.039-1.432,0.039
			c-0.715,0.041-1.549,0.08-2.105,0.08c-0.357,0-0.555-0.08-0.555-0.277c0-0.119,0.078-0.277,0.277-0.277
			c0.318,0,0.754-0.08,1.07-0.158c0.678-0.16,0.758-0.795,0.916-1.791c0.199-1.389,0.199-4.053,0.199-7.311V21.848z M317.282,25.502
			c0,3.576,0,6.715,0.041,7.352c0.039,0.834,0.119,2.066,0.396,2.424c0.438,0.637,1.67,1.35,5.801,1.35
			c3.221,0,6.082-1.072,8.188-3.059c1.828-1.709,2.742-4.928,2.742-8.027c0-4.291-1.867-7.033-3.299-8.463
			c-3.299-3.339-7.152-3.775-11.324-3.775c-0.678,0-1.789,0.12-2.107,0.238s-0.438,0.279-0.438,0.675V25.502z"/>
		<path fill="#0066A4" d="M358.419,21.848c0-5.246,0-6.2-0.08-7.273c-0.08-1.151-0.277-1.708-1.43-1.867
			c-0.279-0.041-0.875-0.08-1.193-0.08c-0.119,0-0.277-0.158-0.277-0.278c0-0.198,0.158-0.277,0.557-0.277
			c1.588,0,3.854,0.079,4.053,0.079c0.238,0,7.551,0.039,8.344,0c0.676-0.04,1.312-0.159,1.59-0.199
			c0.16-0.039,0.318-0.159,0.477-0.159c0.119,0,0.16,0.159,0.16,0.318c0,0.238-0.199,0.636-0.279,1.59
			c-0.039,0.318-0.119,1.828-0.197,2.225c-0.039,0.159-0.16,0.357-0.318,0.357c-0.199,0-0.279-0.157-0.279-0.437
			c0-0.238-0.039-0.795-0.197-1.192c-0.24-0.556-0.596-0.794-2.504-1.032c-0.596-0.08-4.65-0.12-5.047-0.12
			c-0.158,0-0.199,0.12-0.199,0.358v9.179c0,0.238,0,0.358,0.199,0.358c0.438,0,5.047,0,5.842-0.08
			c0.834-0.079,1.35-0.118,1.709-0.477c0.238-0.239,0.396-0.438,0.516-0.438s0.199,0.079,0.199,0.278s-0.199,0.754-0.279,1.867
			c-0.078,0.677-0.158,1.948-0.158,2.185c0,0.279-0.08,0.639-0.318,0.639c-0.158,0-0.238-0.121-0.238-0.318
			c0-0.32,0-0.678-0.158-1.113c-0.119-0.479-0.438-0.875-1.789-1.034c-0.953-0.118-4.688-0.158-5.285-0.158
			c-0.197,0-0.238,0.118-0.238,0.237v2.822c0,1.152-0.039,5.086,0,5.762c0.08,2.266,0.717,2.703,4.174,2.703
			c0.914,0,2.582,0,3.496-0.357c0.914-0.398,1.391-0.994,1.59-2.346c0.08-0.398,0.158-0.516,0.357-0.516s0.238,0.277,0.238,0.516
			s-0.277,2.545-0.477,3.26c-0.238,0.873-0.596,0.873-1.947,0.873c-2.623,0-4.648-0.08-6.08-0.119c-1.471-0.08-2.385-0.08-2.9-0.08
			c-0.08,0-0.756,0-1.512,0.039c-0.674,0.041-1.469,0.08-2.025,0.08c-0.357,0-0.555-0.08-0.555-0.277
			c0-0.119,0.078-0.277,0.277-0.277c0.318,0,0.754-0.121,1.072-0.158c0.676-0.121,0.756-0.795,0.914-1.791
			c0.199-1.389,0.199-4.053,0.199-7.311V21.848z"/>
		<path fill="#0066A4" d="M398.161,12.747c0.438-1.112,0.596-1.312,0.834-1.312c0.357,0,0.477,0.478,0.836,1.231
			c0.635,1.432,6.238,15.379,8.383,20.504c1.273,3.021,2.227,3.457,2.98,3.697c0.518,0.158,1.033,0.199,1.391,0.199
			c0.199,0,0.438,0.078,0.438,0.277c0,0.197-0.396,0.277-0.795,0.277c-0.516,0-3.1,0-5.523-0.08
			c-0.674-0.039-1.232-0.039-1.232-0.236c0-0.16,0.082-0.16,0.24-0.238c0.197-0.08,0.557-0.357,0.318-0.916l-3.141-7.748
			c-0.08-0.158-0.117-0.199-0.318-0.199h-8.066c-0.158,0-0.277,0.082-0.357,0.279l-1.986,5.404
			c-0.318,0.834-0.518,1.668-0.518,2.264c0,0.678,0.596,0.916,1.191,0.916h0.318c0.279,0,0.357,0.119,0.357,0.277
			c0,0.197-0.197,0.277-0.516,0.277c-0.834,0-2.742-0.119-3.139-0.119c-0.357,0-2.107,0.119-3.537,0.119
			c-0.436,0-0.676-0.08-0.676-0.277c0-0.158,0.158-0.277,0.318-0.277c0.238,0,0.754-0.041,1.033-0.08
			c1.588-0.199,2.266-1.393,2.941-3.1L398.161,12.747z M402.056,26.813c0.158,0,0.158-0.08,0.119-0.238l-3.457-9.258
			c-0.199-0.518-0.398-0.518-0.596,0l-3.26,9.258c-0.039,0.158,0,0.238,0.119,0.238H402.056z"/>
		<path fill="#0066A4" d="M427.571,37.145c-0.477-0.236-0.516-0.357-0.516-1.27c0-1.67,0.158-3.021,0.199-3.578
			c0-0.357,0.08-0.557,0.277-0.557c0.199,0,0.318,0.119,0.318,0.398c0,0.277,0,0.754,0.119,1.232
			c0.557,2.463,3.18,3.338,5.523,3.338c3.457,0,5.246-1.949,5.246-4.492c0-2.424-1.312-3.576-4.412-5.881l-1.588-1.191
			c-3.775-2.821-5.008-4.889-5.008-7.232c0-3.974,3.139-6.357,7.75-6.357c1.391,0,2.779,0.198,3.615,0.396
			c0.676,0.159,0.953,0.159,1.232,0.159c0.277,0,0.357,0.04,0.357,0.238c0,0.159-0.158,1.272-0.158,3.576
			c0,0.517-0.041,0.755-0.279,0.755s-0.279-0.159-0.318-0.437c-0.039-0.397-0.318-1.312-0.516-1.669
			c-0.24-0.398-1.393-1.669-4.531-1.669c-2.543,0-4.648,1.271-4.648,3.656c0,2.146,1.072,3.378,4.529,5.723l0.994,0.676
			c4.252,2.899,5.723,5.243,5.723,8.146c0,1.986-0.756,4.131-3.26,5.762c-1.469,0.953-3.654,1.191-5.562,1.191
			C431.03,38.059,429.005,37.821,427.571,37.145z"/>
	</g>
	<g>
		<path fill="#FFFFFF" d="M13.164,32.981c-3.417-2.941-4.251-6.795-4.251-10.013c0-2.267,0.834-6.199,3.934-9.22
			c2.106-2.026,5.285-3.616,10.649-3.616c1.391,0,3.377,0.119,5.087,0.397c1.312,0.238,2.424,0.478,3.576,0.517
			c0.358,0,0.437,0.159,0.437,0.358c0,0.277-0.078,0.674-0.159,1.906c-0.039,1.112-0.039,2.979-0.079,3.458
			c-0.041,0.516-0.199,0.715-0.397,0.715c-0.239,0-0.279-0.238-0.279-0.715c0-1.312-0.556-2.662-1.47-3.379
			c-1.231-1.032-3.775-1.867-6.875-1.867c-4.492,0-6.636,1.193-7.869,2.345c-2.583,2.385-3.139,5.403-3.139,8.821
			c0,6.478,5.126,12.239,12.597,12.239c2.623,0,4.371-0.199,5.762-1.59c0.755-0.754,1.231-2.184,1.352-2.82
			c0.079-0.359,0.119-0.479,0.358-0.479c0.159,0,0.317,0.24,0.317,0.479s-0.477,3.178-0.834,4.332
			c-0.199,0.635-0.278,0.754-0.874,0.992c-1.431,0.557-4.054,0.754-6.318,0.754C19.443,36.596,15.906,35.366,13.164,32.981z"/>
		<path fill="#FFFFFF" d="M58.87,11.285c0.436-1.112,0.595-1.312,0.833-1.312c0.357,0,0.478,0.477,0.835,1.232
			c0.635,1.431,6.239,15.377,8.384,20.504c1.271,3.02,2.225,3.457,2.979,3.695c0.518,0.158,1.033,0.199,1.392,0.199
			c0.198,0,0.438,0.08,0.438,0.277c0,0.199-0.397,0.279-0.796,0.279c-0.516,0-3.099,0-5.524-0.08
			c-0.675-0.041-1.231-0.041-1.231-0.238c0-0.158,0.081-0.158,0.239-0.238c0.199-0.08,0.557-0.357,0.317-0.914l-3.138-7.748
			c-0.08-0.16-0.12-0.199-0.318-0.199h-8.067c-0.158,0-0.278,0.08-0.357,0.277l-1.986,5.404c-0.318,0.836-0.517,1.67-0.517,2.266
			c0,0.676,0.596,0.914,1.192,0.914h0.318c0.279,0,0.357,0.119,0.357,0.277c0,0.199-0.198,0.279-0.516,0.279
			c-0.834,0-2.743-0.121-3.14-0.121c-0.357,0-2.105,0.121-3.536,0.121c-0.438,0-0.675-0.08-0.675-0.279
			c0-0.158,0.158-0.277,0.317-0.277c0.239,0,0.755-0.041,1.034-0.08c1.589-0.199,2.266-1.391,2.94-3.1L58.87,11.285z M62.764,25.352
			c0.159,0,0.159-0.08,0.119-0.238l-3.458-9.259c-0.199-0.518-0.397-0.518-0.597,0l-3.257,9.259c-0.04,0.158,0,0.238,0.118,0.238
			H62.764z"/>
		<path fill="#FFFFFF" d="M90.863,20.385c0-5.246,0-6.199-0.079-7.273c-0.08-1.151-0.278-1.707-1.43-1.868
			c-0.279-0.038-0.875-0.079-1.193-0.079c-0.119,0-0.278-0.157-0.278-0.277c0-0.199,0.159-0.278,0.557-0.278
			c1.588,0,3.774,0.079,4.053,0.079c0.754,0,3.378-0.079,4.967-0.079c4.49,0,6.08,1.391,6.675,1.907
			c0.796,0.716,1.749,2.226,1.749,4.054c0,4.848-3.657,8.066-9.021,8.066c-0.198,0-0.796,0-0.993-0.04
			c-0.16,0-0.358-0.158-0.358-0.316c0-0.278,0.198-0.358,0.915-0.358c3.774,0,6.476-2.385,6.476-5.443
			c0-1.112-0.118-3.299-1.986-5.127c-1.828-1.828-3.935-1.629-4.729-1.629c-0.596,0-1.589,0.158-1.946,0.238
			c-0.199,0.039-0.279,0.278-0.279,0.636v13.75c0,3.258,0,5.92,0.159,7.311c0.12,0.994,0.318,1.629,1.391,1.789
			c0.477,0.078,1.231,0.158,1.55,0.158c0.199,0,0.278,0.158,0.278,0.277c0,0.158-0.159,0.279-0.556,0.279
			c-1.909,0-4.213-0.121-4.372-0.121c-0.118,0-2.385,0.121-3.457,0.121c-0.357,0-0.556-0.08-0.556-0.279
			c0-0.119,0.079-0.277,0.278-0.277c0.318,0,0.755-0.08,1.072-0.158c0.677-0.16,0.756-0.795,0.914-1.789
			c0.199-1.391,0.199-4.053,0.199-7.311V20.385z"/>
		<path fill="#FFFFFF" d="M129.296,26.346c0,3.258,0,5.92,0.158,7.311c0.12,0.994,0.239,1.629,1.271,1.789
			c0.518,0.078,1.272,0.158,1.591,0.158c0.198,0,0.278,0.158,0.278,0.277c0,0.158-0.159,0.279-0.557,0.279
			c-1.946,0-4.211-0.121-4.37-0.121c-0.199,0-2.385,0.121-3.458,0.121c-0.357,0-0.556-0.08-0.556-0.279
			c0-0.119,0.079-0.277,0.278-0.277c0.317,0,0.754-0.08,1.072-0.158c0.676-0.16,0.795-0.795,0.915-1.789
			c0.157-1.391,0.197-4.053,0.197-7.311v-5.961c0-5.246,0-6.199-0.079-7.273c-0.08-1.151-0.357-1.668-1.113-1.827
			c-0.397-0.079-0.833-0.12-1.072-0.12c-0.159,0-0.279-0.157-0.279-0.277c0-0.199,0.159-0.278,0.556-0.278
			c1.153,0,3.339,0.079,3.538,0.079c0.159,0,2.424-0.079,3.496-0.079c0.397,0,0.556,0.079,0.556,0.278
			c0,0.12-0.159,0.277-0.276,0.277c-0.239,0-0.478,0-0.875,0.079c-0.954,0.2-1.153,0.677-1.232,1.868
			c-0.039,1.074-0.039,2.027-0.039,7.273V26.346z"/>
		<path fill="#FFFFFF" d="M161.725,26.346c0,3.258,0,5.92,0.158,7.311c0.121,0.994,0.279,1.629,1.353,1.789
			c0.477,0.078,1.271,0.158,1.59,0.158c0.238,0,0.277,0.158,0.277,0.277c0,0.158-0.158,0.279-0.555,0.279
			c-1.909,0-4.133-0.121-4.332-0.121c-0.16,0-2.584,0.121-3.616,0.121c-0.397,0-0.557-0.08-0.557-0.279
			c0-0.119,0.079-0.238,0.277-0.238c0.318,0,0.716-0.08,1.034-0.158c0.716-0.16,0.913-0.834,1.033-1.828
			c0.159-1.391,0.159-4.053,0.159-7.311V12.159l-5.046,0.08c-2.186,0.039-3.021,0.277-3.537,1.072
			c-0.397,0.596-0.437,0.834-0.557,1.073c-0.08,0.278-0.198,0.318-0.357,0.318c-0.08,0-0.238-0.079-0.238-0.279
			c0-0.356,0.716-3.377,0.755-3.655c0.08-0.199,0.239-0.636,0.358-0.636c0.239,0,0.595,0.279,1.55,0.397
			c0.994,0.119,2.345,0.158,2.741,0.158h13.193c1.153,0,1.948-0.079,2.504-0.158c0.516-0.08,0.834-0.159,0.993-0.159
			c0.16,0,0.16,0.198,0.16,0.397c0,1.033-0.12,3.457-0.12,3.855c0,0.277-0.159,0.437-0.317,0.437c-0.159,0-0.239-0.119-0.278-0.597
			l-0.04-0.356c-0.119-1.033-0.874-1.788-4.211-1.868l-4.373-0.08V26.346z"/>
		<path fill="#FFFFFF" d="M194.555,11.285c0.438-1.112,0.595-1.312,0.833-1.312c0.358,0,0.478,0.477,0.835,1.232
			c0.636,1.431,6.239,15.377,8.384,20.504c1.271,3.02,2.227,3.457,2.981,3.695c0.517,0.158,1.033,0.199,1.391,0.199
			c0.199,0,0.438,0.08,0.438,0.277c0,0.199-0.397,0.279-0.795,0.279c-0.516,0-3.101,0-5.523-0.08
			c-0.676-0.041-1.232-0.041-1.232-0.238c0-0.158,0.08-0.158,0.239-0.238c0.199-0.08,0.556-0.357,0.318-0.914l-3.139-7.748
			c-0.08-0.16-0.12-0.199-0.319-0.199h-8.066c-0.159,0-0.278,0.08-0.357,0.277l-1.986,5.404c-0.318,0.836-0.518,1.67-0.518,2.266
			c0,0.676,0.596,0.914,1.193,0.914h0.317c0.278,0,0.358,0.119,0.358,0.277c0,0.199-0.199,0.279-0.517,0.279
			c-0.834,0-2.742-0.121-3.14-0.121c-0.357,0-2.105,0.121-3.537,0.121c-0.436,0-0.674-0.08-0.674-0.279
			c0-0.158,0.159-0.277,0.318-0.277c0.238,0,0.755-0.041,1.032-0.08c1.591-0.199,2.266-1.391,2.941-3.1L194.555,11.285z
			 M198.448,25.352c0.16,0,0.16-0.08,0.12-0.238l-3.457-9.259c-0.199-0.518-0.398-0.518-0.597,0l-3.259,9.259
			c-0.04,0.158,0,0.238,0.12,0.238H198.448z"/>
		<path fill="#FFFFFF" d="M229.728,26.424c0,4.967,0.078,6.994,0.715,7.59c0.557,0.557,1.908,0.795,4.65,0.795
			c1.826,0,3.377-0.039,4.211-1.033c0.438-0.516,0.715-1.232,0.834-1.906c0.041-0.238,0.16-0.438,0.357-0.438
			c0.16,0,0.238,0.158,0.238,0.516s-0.238,2.385-0.516,3.377c-0.238,0.795-0.357,0.914-2.225,0.914c-2.504,0-4.451-0.037-6.08-0.119
			c-1.589-0.039-2.782-0.08-3.814-0.08c-0.16,0-0.756,0-1.432,0.041c-0.715,0.039-1.47,0.08-2.027,0.08
			c-0.357,0-0.556-0.08-0.556-0.279c0-0.119,0.079-0.277,0.278-0.277c0.318,0,0.756-0.08,1.074-0.158
			c0.675-0.16,0.754-0.795,0.915-1.789c0.197-1.391,0.197-4.053,0.197-7.311v-5.961c0-5.246,0-6.199-0.08-7.273
			c-0.078-1.151-0.277-1.707-1.43-1.868c-0.277-0.038-0.874-0.079-1.191-0.079c-0.119,0-0.278-0.157-0.278-0.277
			c0-0.199,0.159-0.278,0.556-0.278c1.59,0,3.776,0.079,3.975,0.079c0.158,0,2.781-0.079,3.853-0.079
			c0.357,0,0.557,0.079,0.557,0.278c0,0.12-0.158,0.239-0.277,0.239c-0.24,0-0.754,0.038-1.152,0.079
			c-1.034,0.199-1.232,0.715-1.312,1.906c-0.039,1.074-0.039,2.027-0.039,7.273V26.424z"/>
		<path fill="#FFFFFF" d="M288.946,26.346c0,3.258,0,5.92,0.158,7.311c0.119,0.994,0.238,1.629,1.271,1.789
			c0.518,0.078,1.271,0.158,1.59,0.158c0.199,0,0.277,0.158,0.277,0.277c0,0.158-0.158,0.279-0.555,0.279
			c-1.947,0-4.213-0.121-4.371-0.121c-0.199,0-2.385,0.121-3.457,0.121c-0.359,0-0.557-0.08-0.557-0.279
			c0-0.119,0.078-0.277,0.277-0.277c0.318,0,0.756-0.08,1.072-0.158c0.676-0.16,0.795-0.795,0.916-1.789
			c0.158-1.391,0.197-4.053,0.197-7.311v-5.961c0-5.246,0-6.199-0.08-7.273c-0.078-1.151-0.357-1.668-1.111-1.827
			c-0.398-0.079-0.836-0.12-1.074-0.12c-0.158,0-0.277-0.157-0.277-0.277c0-0.199,0.158-0.278,0.557-0.278
			c1.152,0,3.338,0.079,3.537,0.079c0.158,0,2.424-0.079,3.496-0.079c0.396,0,0.557,0.079,0.557,0.278
			c0,0.12-0.16,0.277-0.279,0.277c-0.238,0-0.477,0-0.873,0.079c-0.955,0.2-1.154,0.677-1.232,1.868
			c-0.039,1.074-0.039,2.027-0.039,7.273V26.346z"/>
		<path fill="#FFFFFF" d="M312.952,20.385c0-5.246,0-6.199-0.08-7.273c-0.08-1.151-0.277-1.707-1.432-1.868
			c-0.277-0.038-0.873-0.079-1.191-0.079c-0.119,0-0.277-0.157-0.277-0.277c0-0.199,0.158-0.278,0.557-0.278
			c1.588,0,3.854,0.079,4.053,0.079c0.396,0,2.623-0.079,4.689-0.079c3.496,0,9.895-0.317,14.027,3.854
			c1.748,1.749,3.418,4.569,3.418,8.584c0,4.252-1.83,7.51-3.775,9.496c-1.512,1.551-4.648,3.895-10.611,3.895
			c-1.51,0-3.377-0.119-4.887-0.199c-1.51-0.119-2.703-0.199-2.861-0.199c-0.078,0-0.715,0.041-1.43,0.041
			c-0.717,0.039-1.551,0.08-2.107,0.08c-0.357,0-0.557-0.08-0.557-0.279c0-0.119,0.08-0.277,0.279-0.277
			c0.318,0,0.754-0.08,1.072-0.158c0.676-0.16,0.756-0.795,0.914-1.789c0.199-1.391,0.199-4.053,0.199-7.311V20.385z
			 M316.132,24.041c0,3.577,0,6.716,0.039,7.351c0.039,0.836,0.119,2.066,0.396,2.426c0.438,0.635,1.67,1.35,5.803,1.35
			c3.219,0,6.08-1.072,8.186-3.059c1.828-1.709,2.742-4.928,2.742-8.028c0-4.291-1.869-7.033-3.299-8.464
			c-3.297-3.338-7.152-3.775-11.326-3.775c-0.674,0-1.787,0.12-2.105,0.238c-0.318,0.119-0.436,0.279-0.436,0.676V24.041z"/>
		<path fill="#FFFFFF" d="M357.267,20.385c0-5.246,0-6.199-0.08-7.273c-0.078-1.151-0.277-1.707-1.43-1.868
			c-0.279-0.038-0.875-0.079-1.193-0.079c-0.119,0-0.277-0.157-0.277-0.277c0-0.199,0.158-0.278,0.557-0.278
			c1.59,0,3.854,0.079,4.053,0.079c0.238,0,7.551,0.039,8.346,0c0.674-0.039,1.311-0.158,1.588-0.196
			c0.16-0.042,0.318-0.161,0.477-0.161c0.121,0,0.16,0.161,0.16,0.318c0,0.238-0.199,0.636-0.279,1.59
			c-0.039,0.318-0.119,1.828-0.197,2.225c-0.039,0.16-0.16,0.357-0.318,0.357c-0.199,0-0.279-0.158-0.279-0.437
			c0-0.239-0.039-0.795-0.197-1.192c-0.238-0.556-0.596-0.795-2.504-1.033c-0.596-0.08-4.648-0.118-5.047-0.118
			c-0.158,0-0.197,0.118-0.197,0.356v9.18c0,0.238,0,0.358,0.197,0.358c0.438,0,5.047,0,5.842-0.08
			c0.836-0.08,1.352-0.118,1.709-0.477c0.238-0.239,0.396-0.438,0.516-0.438s0.199,0.08,0.199,0.279
			c0,0.197-0.199,0.754-0.277,1.867c-0.08,0.675-0.16,1.946-0.16,2.185c0,0.277-0.08,0.635-0.316,0.635
			c-0.16,0-0.24-0.119-0.24-0.316c0-0.318,0-0.676-0.158-1.111c-0.119-0.478-0.436-0.876-1.787-1.034
			c-0.955-0.12-4.689-0.159-5.285-0.159c-0.199,0-0.238,0.119-0.238,0.238v2.822c0,1.15-0.041,5.086,0,5.762
			c0.078,2.266,0.715,2.701,4.17,2.701c0.914,0,2.586,0,3.5-0.357c0.912-0.396,1.389-0.994,1.588-2.344
			c0.08-0.398,0.158-0.518,0.357-0.518c0.201,0,0.238,0.279,0.238,0.518c0,0.236-0.277,2.543-0.477,3.258
			c-0.238,0.873-0.598,0.873-1.947,0.873c-2.623,0-4.648-0.078-6.08-0.119c-1.471-0.08-2.385-0.08-2.9-0.08
			c-0.08,0-0.754,0-1.51,0.041c-0.676,0.039-1.471,0.08-2.027,0.08c-0.357,0-0.557-0.08-0.557-0.279c0-0.119,0.08-0.277,0.277-0.277
			c0.32,0,0.756-0.119,1.074-0.158c0.676-0.121,0.756-0.795,0.914-1.789c0.199-1.391,0.199-4.053,0.199-7.311V20.385z"/>
		<path fill="#FFFFFF" d="M397.009,11.285c0.438-1.112,0.596-1.312,0.834-1.312c0.359,0,0.479,0.477,0.836,1.232
			c0.635,1.431,6.24,15.377,8.383,20.504c1.273,3.02,2.227,3.457,2.98,3.695c0.518,0.158,1.033,0.199,1.393,0.199
			c0.197,0,0.436,0.08,0.436,0.277c0,0.199-0.396,0.279-0.795,0.279c-0.516,0-3.1,0-5.521-0.08
			c-0.678-0.041-1.232-0.041-1.232-0.238c0-0.158,0.078-0.158,0.238-0.238c0.197-0.08,0.557-0.357,0.316-0.914l-3.139-7.748
			c-0.078-0.16-0.119-0.199-0.318-0.199h-8.066c-0.158,0-0.277,0.08-0.357,0.277l-1.986,5.404c-0.318,0.836-0.516,1.67-0.516,2.266
			c0,0.676,0.596,0.914,1.191,0.914h0.316c0.279,0,0.359,0.119,0.359,0.277c0,0.199-0.199,0.279-0.518,0.279
			c-0.834,0-2.742-0.121-3.139-0.121c-0.357,0-2.105,0.121-3.537,0.121c-0.438,0-0.676-0.08-0.676-0.279
			c0-0.158,0.16-0.277,0.318-0.277c0.238,0,0.756-0.041,1.033-0.08c1.59-0.199,2.266-1.391,2.941-3.1L397.009,11.285z
			 M400.903,25.352c0.158,0,0.158-0.08,0.119-0.238l-3.457-9.259c-0.199-0.518-0.398-0.518-0.596,0l-3.26,9.259
			c-0.039,0.158,0,0.238,0.119,0.238H400.903z"/>
		<path fill="#FFFFFF" d="M426.421,35.684c-0.477-0.238-0.518-0.359-0.518-1.271c0-1.67,0.158-3.021,0.199-3.578
			c0-0.357,0.08-0.555,0.277-0.555c0.199,0,0.32,0.119,0.32,0.396c0,0.279,0,0.756,0.117,1.232c0.557,2.465,3.18,3.338,5.523,3.338
			c3.459,0,5.246-1.947,5.246-4.49c0-2.424-1.311-3.576-4.41-5.881l-1.592-1.192c-3.773-2.821-5.006-4.888-5.006-7.232
			c0-3.974,3.139-6.358,7.75-6.358c1.391,0,2.779,0.199,3.615,0.399c0.676,0.157,0.953,0.157,1.232,0.157
			c0.277,0,0.357,0.039,0.357,0.238c0,0.159-0.158,1.271-0.158,3.576c0,0.516-0.041,0.755-0.279,0.755s-0.279-0.158-0.318-0.437
			c-0.039-0.397-0.316-1.312-0.516-1.67c-0.24-0.396-1.391-1.668-4.531-1.668c-2.543,0-4.648,1.272-4.648,3.656
			c0,2.146,1.072,3.378,4.531,5.722l0.992,0.677c4.252,2.899,5.723,5.244,5.723,8.145c0,1.988-0.756,4.133-3.258,5.762
			c-1.471,0.955-3.656,1.191-5.564,1.191C429.878,36.596,427.851,36.36,426.421,35.684z"/>
	</g>
</g>
</svg>
