<?xml version="1.0" encoding="utf-8"?>
<!-- Generator: Adobe Illustrator 16.0.0, SVG Export Plug-In . SVG Version: 6.00 Build 0)  -->
<!DOCTYPE svg PUBLIC "-//W3C//DTD SVG 1.1//EN" "http://www.w3.org/Graphics/SVG/1.1/DTD/svg11.dtd">
<svg version="1.1" id="Layer_1" xmlns="http://www.w3.org/2000/svg" xmlns:xlink="http://www.w3.org/1999/xlink" x="0px" y="0px"
	 width="286.334px" height="63.091px" viewBox="-54.049 -11.909 286.334 63.091"
	 enable-background="new -54.049 -11.909 286.334 63.091" xml:space="preserve">
<g>
	<path fill="#FFFFFF" d="M47.69-1.392c0.979,0.44,2.039,1.149,2.039,1.654v40.503h5.684V-1.497H47.69V-1.392z"/>
	<path fill="#FFFFFF" d="M-51.744-1.392c0.978,0.44,2.042,1.149,2.042,1.654v40.503h5.688V-1.497h-7.729V-1.392z"/>
	<path fill="#FFFFFF" d="M96.357,34.385c-2.261,1.186-4.653,1.679-8.408,1.679c-9.073,0-15.579-5.9-15.579-16.517
		c0-12.493,8.745-16.341,16.509-16.341c4.265,0,7.417,0.681,10.01,1.824c0.51,0.41,1.26,1.661,1.523,2.271h0.097v-7.311
		c-4.068-1.222-7.363-1.742-11.493-1.742c-14.312,0-22.546,9.68-22.546,21.298c0,13.243,8.261,21.478,20.643,21.478
		c5.409,0,9.963-0.872,14.935-3.821V20.285h-5.69V34.385z"/>
	<path fill="#FFFFFF" d="M140.231-1.392c0.982,0.44,2.04,1.149,2.04,1.654v25.752c0,2.955,0.131,4.807,0.131,4.807h-0.131
		L118.622-1.497h-7.329v0.104c0.979,0.44,2.04,1.15,2.04,1.654v40.503h5.692V13.26c0-2.964-0.13-4.806-0.13-4.806h0.13
		l23.648,32.309h5.288v-42.26h-7.727v0.105H140.231z"/>
	<path fill="#FFFFFF" d="M-5.172-1.392c0.98,0.44,2.04,1.149,2.04,1.654v25.752c0,2.955,0.129,4.807,0.129,4.807h-0.129
		L-26.782-1.497h-7.329v0.104c0.977,0.44,2.041,1.15,2.041,1.654v40.503h5.689V13.26c0-2.964-0.127-4.806-0.127-4.806h0.127
		L-2.73,40.763h5.289v-42.26h-7.73L-5.172-1.392L-5.172-1.392z"/>
	<path fill="#FFFFFF" d="M20.067,8.847c0-3.735,3.383-5.641,7.017-5.641c4.627,0,6.561,1.485,8.139,2.646
		c0,0,0.961,1.332,1.333,2.164h0.106v-6.94c-1.807-1.287-5.259-2.829-9.587-2.829c-6.641,0-12.91,3.903-12.91,10.958
		c0,13.395,18.688,12.454,18.688,20.773c0,4.316-3.687,6.084-7.886,6.084c-3.859,0-7.802-1.641-10.382-3.164l-2.142,4.634
		c3.184,1.714,7.711,3.492,12.356,3.492c7.794,0,13.951-4.31,13.951-11.595C38.753,17.369,20.067,17.825,20.067,8.847"/>
	<path fill="#FFFFFF" d="M192.001-1.392v-0.105h-7.357l-10.696,20.442h-0.125L163.128-1.501h-7.358v0.102
		c0.562,0.277,1.339,0.883,2.039,1.654l13.235,24.12v16.391h5.688V24.383l13.229-24.121C190.662-0.511,191.442-1.114,192.001-1.392"
		/>
	<path fill="#FFFFFF" d="M229.979,15.08l-0.697-1.507l-0.087,0.036c0.154,0.704,0.161,1.444-0.039,1.705
		c-2.035,2.785-5.512,5.323-10.317,7.129l-9.205-23.92h-7.062v0.096c0.979,0.446,2.043,1.155,2.043,1.657l-15.588,40.508h6.014
		c0,0,1.679-4.624,3.803-10.466c1.129,0.125,3.122,0.125,3.122,0.125c5.546,0,9.976-0.669,13.527-1.726
		c2.389,6.578,4.388,12.066,4.388,12.066h6.011l-5.406-14.057C228.256,22.673,229.582,16.55,229.979,15.08z M200.721,25.139
		c3.137-8.639,6.443-17.795,6.676-18.586h0.128c0.222,0.756,3.243,9.121,6.236,17.392C209.993,24.792,205.638,25.239,200.721,25.139
		z"/>
</g>
</svg>
