<?xml version="1.0" encoding="utf-8"?>
<!-- Generator: Adobe Illustrator 16.0.0, SVG Export Plug-In . SVG Version: 6.00 Build 0)  -->
<!DOCTYPE svg PUBLIC "-//W3C//DTD SVG 1.1//EN" "http://www.w3.org/Graphics/SVG/1.1/DTD/svg11.dtd">
<svg version="1.1" id="Layer_1" xmlns="http://www.w3.org/2000/svg" xmlns:xlink="http://www.w3.org/1999/xlink" x="0px" y="0px"
	 width="465px" height="126px" viewBox="403.5 335.5 465 126" enable-background="new 403.5 335.5 465 126" xml:space="preserve">
<g>
	<path fill="#FFFFFF" d="M501.204,453.139c-3.444,0-5.995-2.737-5.995-6.209v-0.026c0-3.412,2.551-6.242,6.024-6.242
		c2.154,0,3.447,0.799,4.688,1.936l-0.641,0.652c-1.049-1.021-2.254-1.779-4.062-1.779c-2.896,0-5.082,2.367-5.082,5.396v0.037
		c0,3.045,2.226,5.425,5.095,5.425c1.743,0,2.937-0.671,4.155-1.874l0.604,0.582C504.717,452.291,503.34,453.139,501.204,453.139"/>
	<path fill="#FFFFFF" d="M520.789,440.793h-0.865l-5.609,12.133h0.935l1.523-3.373h7.118l1.533,3.373h0.979L520.789,440.793z
		 M517.159,448.744l3.18-6.976l3.174,6.976H517.159z"/>
	<path fill="#FFFFFF" d="M540.566,440.869h-4.379v12.057h0.896v-4.49h3.257c2.515,0,4.701-1.311,4.701-3.844v-0.033
		C545.042,442.229,543.214,440.869,540.566,440.869z M544.142,444.644c0,1.792-1.514,2.967-3.755,2.967h-3.304v-5.908h3.408
		c2.176,0,3.649,0.995,3.649,2.91L544.142,444.644L544.142,444.644z"/>
	<rect x="555.052" y="440.869" fill="#FFFFFF" width="0.896" height="12.057"/>
	<polygon fill="#FFFFFF" points="571.127,441.703 571.127,452.926 570.225,452.926 570.225,441.703 566.028,441.703 
		566.028,440.869 575.323,440.869 575.323,441.703 	"/>
	<path fill="#FFFFFF" d="M589.173,440.793h-0.857l-5.617,12.133h0.931l1.536-3.373h7.11l1.535,3.373h0.978L589.173,440.793z
		 M585.535,448.744l3.193-6.976l3.161,6.976H585.535z"/>
	<polygon fill="#FFFFFF" points="604.573,452.926 604.573,440.869 605.475,440.869 605.475,452.104 612.552,452.104 
		612.552,452.926 	"/>
	<path fill="#FFFFFF" d="M637.24,440.869h-4.379v12.057h0.891v-4.49h3.257c2.517,0,4.703-1.311,4.703-3.844v-0.033
		C641.711,442.229,639.888,440.869,637.24,440.869z M640.814,444.644c0,1.792-1.516,2.967-3.761,2.967h-3.303v-5.908h3.407
		c2.18,0,3.655,0.995,3.655,2.91L640.814,444.644L640.814,444.644z"/>
	<path fill="#FFFFFF" d="M655.838,440.793h-0.861l-5.614,12.133h0.928l1.529-3.373h7.116l1.535,3.373h0.98L655.838,440.793z
		 M652.205,448.744l3.184-6.976l3.17,6.976H652.205z"/>
	<path fill="#FFFFFF" d="M677.08,447.777c2.033-0.273,3.527-1.431,3.527-3.441v-0.039c0-2.014-1.709-3.428-4.306-3.428h-5.065
		v12.057h0.895v-4.992h3.949l3.838,4.992h1.139L677.08,447.777z M672.131,447.125v-5.424h4.117c2.191,0,3.463,1.012,3.463,2.635
		v0.033c0,1.74-1.5,2.756-3.51,2.756H672.131z"/>
	<polygon fill="#FFFFFF" points="694.996,441.703 694.996,452.926 694.098,452.926 694.098,441.703 689.895,441.703 
		689.895,440.869 699.197,440.869 699.197,441.703 	"/>
	<polygon fill="#FFFFFF" points="718.508,452.926 710.016,442.213 710.016,452.926 709.15,452.926 709.15,440.869 710,440.869 
		718.316,451.359 718.316,440.869 719.176,440.869 719.176,452.926 	"/>
	<polygon fill="#FFFFFF" points="729.998,452.926 729.998,440.869 738.574,440.869 738.574,441.703 730.893,441.703 
		730.893,446.438 737.803,446.438 737.803,447.261 730.893,447.261 730.893,452.104 738.656,452.104 738.656,452.926 	"/>
	<path fill="#FFFFFF" d="M754.609,447.777c2.037-0.273,3.532-1.431,3.532-3.441v-0.039c0-2.014-1.7-3.428-4.305-3.428h-5.062v12.057
		h0.895v-4.992h3.939l3.844,4.992h1.139L754.609,447.777z M749.67,447.125v-5.424h4.115c2.184,0,3.461,1.012,3.461,2.635v0.033
		c0,1.74-1.492,2.756-3.514,2.756H749.67z"/>
	<path fill="#FFFFFF" d="M772.543,453.104c-1.932,0-3.408-0.637-4.859-1.93l0.586-0.674c1.326,1.225,2.55,1.794,4.332,1.794
		c1.8,0,3.041-1.017,3.041-2.394v-0.037c0-1.272-0.67-2.017-3.407-2.56c-2.896-0.593-4.064-1.575-4.064-3.401v-0.029
		c0-1.797,1.633-3.174,3.871-3.174c1.766,0,2.91,0.479,4.133,1.462l-0.565,0.708c-1.136-0.982-2.273-1.357-3.601-1.357
		c-1.77,0-2.949,1.016-2.949,2.271v0.037c0,1.271,0.656,2.045,3.519,2.634c2.793,0.569,3.967,1.571,3.967,3.322v0.03
		C776.543,451.756,774.867,453.104,772.543,453.104"/>
	<path fill="#FFFFFF" d="M574.469,348.07c1.535,0.682,3.198,1.797,3.198,2.585v63.503h8.91v-66.254h-12.108V348.07z"/>
	<path fill="#FFFFFF" d="M418.58,348.07c1.532,0.682,3.201,1.797,3.201,2.585v63.503h8.916v-66.254H418.58V348.07z"/>
	<path fill="#FFFFFF" d="M650.768,404.158c-3.547,1.854-7.297,2.631-13.185,2.631c-14.225,0-24.424-9.25-24.424-25.897
		c0-19.585,13.713-25.615,25.884-25.615c6.684,0,11.629,1.064,15.694,2.859c0.797,0.643,1.975,2.605,2.389,3.561h0.154v-11.462
		c-6.384-1.917-11.55-2.732-18.021-2.732c-22.437,0-35.349,15.175-35.349,33.391c0,20.763,12.954,33.675,32.361,33.675
		c8.478,0,15.62-1.367,23.413-5.994v-26.524h-8.918V404.158L650.768,404.158z"/>
	<path fill="#FFFFFF" d="M719.551,348.07c1.543,0.682,3.201,1.797,3.201,2.585v40.377c0,4.635,0.201,7.536,0.201,7.536h-0.201
		l-37.076-50.665h-11.492v0.166c1.535,0.682,3.195,1.797,3.195,2.585v63.503h8.926v-43.121c0-4.646-0.205-7.536-0.205-7.536h0.205
		l37.076,50.657h8.291v-66.254h-12.121V348.07L719.551,348.07z"/>
	<path fill="#FFFFFF" d="M491.593,348.07c1.538,0.682,3.199,1.797,3.199,2.585v40.377c0,4.635,0.202,7.536,0.202,7.536h-0.202
		l-37.078-50.665h-11.489v0.166c1.532,0.682,3.194,1.797,3.194,2.585v63.503h8.923v-43.121c0-4.646-0.202-7.536-0.202-7.536h0.202
		l37.076,50.657h8.294v-66.254h-12.119V348.07z"/>
	<path fill="#FFFFFF" d="M531.164,364.117c0-5.854,5.304-8.841,11.002-8.841c7.254,0,10.283,2.332,12.761,4.146
		c0,0,1.508,2.088,2.091,3.393h0.166v-10.881c-2.83-2.016-8.242-4.434-15.029-4.434c-10.407,0-20.237,6.118-20.237,17.184
		c0,20.994,29.293,19.521,29.293,32.564c0,6.77-5.777,9.539-12.358,9.539c-6.05,0-12.23-2.574-16.275-4.961l-3.356,7.26
		c4.992,2.688,12.083,5.479,19.372,5.479c12.216,0,21.869-6.76,21.869-18.177C560.458,377.478,531.164,378.195,531.164,364.117"/>
	<path fill="#FFFFFF" d="M800.719,348.07v-0.166h-11.533l-16.77,32.045h-0.195l-16.77-32.055h-11.535v0.16
		c0.885,0.438,2.1,1.378,3.197,2.593l20.75,37.813v25.698h8.914v-25.688l20.746-37.815
		C798.617,349.442,799.838,348.505,800.719,348.07"/>
	<path fill="#FFFFFF" d="M860.262,373.886l-1.098-2.358l-0.135,0.058c0.246,1.104,0.256,2.264-0.06,2.672
		c-3.192,4.369-8.643,8.345-16.18,11.177l-14.428-37.506h-11.07v0.157c1.531,0.696,3.199,1.805,3.199,2.596l-24.439,63.505h9.428
		c0,0,2.638-7.241,5.964-16.402c1.77,0.193,4.895,0.193,4.895,0.193c8.695,0,15.641-1.048,21.207-2.704
		c3.746,10.315,6.881,18.913,6.881,18.913h9.42l-8.473-22.033C857.557,385.792,859.637,376.19,860.262,373.886z M814.385,389.663
		c4.918-13.549,10.103-27.904,10.465-29.146h0.201c0.349,1.185,5.086,14.303,9.783,27.269
		C828.922,389.117,822.098,389.816,814.385,389.663z"/>
</g>
</svg>
