<?xml version="1.0" encoding="UTF-8" standalone="no"?>
<svg width="39px" height="39px" viewBox="0 0 39 39" version="1.1" xmlns="http://www.w3.org/2000/svg" xmlns:xlink="http://www.w3.org/1999/xlink" xmlns:sketch="http://www.bohemiancoding.com/sketch/ns">
    <!-- Generator: Sketch 3.3.3 (12072) - http://www.bohemiancoding.com/sketch -->
    <title>Untitled</title>
    <desc>Created with Sketch.</desc>
    <defs></defs>
    <g id="Page-1" stroke="none" stroke-width="1" fill="none" fill-rule="evenodd" sketch:type="MSPage">
        <g id="linkedin" sketch:type="MSLayerGroup" fill="#37ABEE">
            <path d="M35.578,0.451 L3.176,0.451 C1.627,0.451 0.369,1.679 0.369,3.19 L0.369,35.73 C0.369,37.244 1.627,38.473 3.176,38.473 L35.577,38.473 C37.127,38.473 38.393,37.244 38.393,35.73 L38.393,3.19 C38.394,1.679 37.127,0.451 35.578,0.451 L35.578,0.451 Z M11.647,32.85 L6.005,32.85 L6.005,14.706 L11.647,14.706 L11.647,32.85 L11.647,32.85 Z M8.826,12.225 C7.018,12.225 5.557,10.76 5.557,8.954 C5.557,7.151 7.018,5.685 8.826,5.685 C10.629,5.685 12.095,7.151 12.095,8.954 C12.095,10.76 10.629,12.225 8.826,12.225 L8.826,12.225 Z M32.768,32.85 L27.135,32.85 L27.135,24.027 C27.135,21.923 27.094,19.216 24.203,19.216 C21.269,19.216 20.821,21.508 20.821,23.875 L20.821,32.851 L15.183,32.851 L15.183,14.706 L20.593,14.706 L20.593,17.185 L20.67,17.185 C21.423,15.759 23.263,14.254 26.007,14.254 C31.713,14.254 32.767,18.011 32.767,22.899 L32.767,32.85 L32.768,32.85 Z" id="Shape" sketch:type="MSShapeGroup"></path>
        </g>
    </g>
</svg>